<?xml version="1.0" encoding="UTF-8"?>
<svg xmlns="http://www.w3.org/2000/svg" xmlns:xlink="http://www.w3.org/1999/xlink" width="32pt" height="32pt" viewBox="0 0 32 32" version="1.1">
<g id="surface1">
<path d="M 11.808594 4.574219 C 11.074219 4.804688 10.726562 5.101562 10.007812 6.078125 L 9.410156 6.90625 L 6.019531 6.9375 C 2.726562 6.964844 2.621094 6.972656 2.308594 7.101562 C 1.3125 7.503906 0.675781 8.207031 0.425781 9.179688 C 0.285156 9.707031 0.285156 24.726562 0.425781 25.25 C 0.699219 26.308594 1.515625 27.128906 2.566406 27.40625 C 2.886719 27.484375 4.457031 27.496094 16 27.496094 C 27.542969 27.496094 29.113281 27.484375 29.433594 27.40625 C 30.484375 27.128906 31.300781 26.308594 31.574219 25.25 C 31.714844 24.726562 31.714844 9.707031 31.574219 9.179688 C 31.324219 8.207031 30.6875 7.503906 29.691406 7.101562 C 29.378906 6.972656 29.273438 6.964844 25.980469 6.9375 L 22.589844 6.90625 L 21.992188 6.078125 C 21.34375 5.191406 21.148438 5.007812 20.527344 4.707031 L 20.128906 4.519531 L 16.089844 4.507812 C 12.945312 4.492188 11.996094 4.511719 11.808594 4.574219 Z M 17.511719 9.929688 C 18.601562 10.203125 19.554688 10.679688 20.414062 11.378906 L 20.839844 11.726562 L 21.558594 11.015625 L 22.273438 10.300781 L 23.042969 13.195312 C 23.472656 14.78125 23.808594 16.089844 23.800781 16.101562 C 23.789062 16.113281 22.589844 15.804688 21.128906 15.410156 C 19.671875 15.019531 18.367188 14.671875 18.238281 14.640625 L 18 14.574219 L 18.71875 13.855469 L 19.425781 13.140625 L 19.230469 12.957031 C 18.757812 12.515625 17.96875 12.089844 17.242188 11.878906 C 16.550781 11.683594 15.253906 11.679688 14.574219 11.878906 C 12.746094 12.40625 11.488281 13.710938 10.953125 15.648438 C 10.835938 16.070312 10.613281 16.316406 10.265625 16.421875 C 9.648438 16.605469 9.023438 16.152344 9.023438 15.527344 C 9.023438 15.179688 9.25 14.4375 9.542969 13.808594 C 10.527344 11.714844 12.394531 10.277344 14.691406 9.84375 C 15.375 9.714844 16.839844 9.757812 17.511719 9.929688 Z M 22.492188 17.96875 C 22.804688 18.175781 22.976562 18.472656 22.976562 18.796875 C 22.976562 19.152344 22.617188 20.234375 22.289062 20.832031 C 21.386719 22.535156 19.75 23.832031 17.910156 24.316406 C 15.664062 24.902344 13.171875 24.339844 11.542969 22.878906 C 11.375 22.722656 11.214844 22.601562 11.191406 22.601562 C 11.160156 22.601562 10.828125 22.90625 10.449219 23.289062 C 10.070312 23.667969 9.75 23.960938 9.734375 23.949219 C 9.671875 23.882812 8.191406 18.226562 8.234375 18.207031 C 8.269531 18.1875 13.601562 19.589844 13.914062 19.699219 C 13.972656 19.71875 13.765625 19.96875 13.28125 20.453125 L 12.5625 21.175781 L 12.84375 21.414062 C 13.785156 22.203125 14.808594 22.570312 16.09375 22.570312 C 16.992188 22.566406 17.460938 22.472656 18.183594 22.144531 C 19.550781 21.511719 20.613281 20.265625 20.988281 18.824219 C 21.171875 18.132812 21.484375 17.835938 22.035156 17.828125 C 22.199219 17.828125 22.359375 17.878906 22.492188 17.96875 Z M 22.492188 17.96875 "/>
</g>
</svg>
